<svg xmlns="http://www.w3.org/2000/svg" width="180.6mm" height="180.6mm" viewBox="0 0 511.8 511.8"><path d="M232-19.8a11.3,11.3,0,0,1-10,0Z" transform="translate(18.9 19.8)" fill="#414141"/><path d="M252-19.8a11.3,11.3,0,0,1-10,0Z" transform="translate(18.9 19.8)" fill="#414141"/><path d="M-18.9,221.1a11.3,11.3,0,0,1,0,10Z" transform="translate(18.9 19.8)" fill="#404040"/><path d="M492.9,231.1a11.3,11.3,0,0,1,0-10Z" transform="translate(18.9 19.8)" fill="#404040"/><path d="M-18.9,241.1a11.3,11.3,0,0,1,0,10Z" transform="translate(18.9 19.8)" fill="#404040"/><path d="M492.9,251.1a11.3,11.3,0,0,1,0-10Z" transform="translate(18.9 19.8)" fill="#404040"/><path d="M222,492a11.3,11.3,0,0,1,10,0Z" transform="translate(18.9 19.8)" fill="#404040"/><path d="M242,492a9,9,0,0,1,9,0Z" transform="translate(18.9 19.8)" fill="#404040"/><path d="M472.1,219.2c-1-5.4-.5-10.9-1.3-16.3A236,236,0,0,0,403.9,69.5a228,228,0,0,0-51.5-38.9A237.1,237.1,0,0,0,281.6,4.7c-9.3-1.8-18.7-2-28.1-3.1h-2.7a17.9,17.9,0,0,1-9.2,0h-9.2a17.9,17.9,0,0,1-9.2,0h-3.6a2.5,2.5,0,0,1-1.7.4c-17.2.1-33.8,3.7-50,8.7q-66.6,20.9-111.7,74c-27.4,32.4-44.6,69.6-52,111.4-1.3,7.4-1.1,14.8-2.3,22.2v4.6a17.9,17.9,0,0,1,0,9.2v9.1a17.9,17.9,0,0,1,0,9.2V255c.9,5,.5,10,1.2,15A237,237,0,0,0,28,346.8a232.6,232.6,0,0,0,57.1,70.6,230.9,230.9,0,0,0,111.3,52c7.4,1.3,14.9,1.2,22.2,2.3h4.6a17.9,17.9,0,0,1,9.2,0h9.2a16.7,16.7,0,0,1,8.3,0h3.6c5.6-.9,11.3-.4,16.8-1.2A236.7,236.7,0,0,0,469.8,277.2c1.3-7.4,1.1-14.8,2.3-22.2v-4.6a17.9,17.9,0,0,1,0-9.2v-9.1a17.9,17.9,0,0,1,0-9.2ZM236.9,452.3c-120.1-1-215.4-96.9-215.3-215.7a215.4,215.4,0,1,1,430.8.1C452.3,356.8,355.7,451.5,236.9,452.3Z" transform="translate(18.9 19.8)"/><path d="M334.8,148.9c.2,3.7-2.4,6.3-5,8.9q-37.7,37.6-75.4,75.2c-3,3-2.8,4.5.1,7.3q37.2,36.9,74,74l2.6,2.6c4.6,4.8,5,10.6,1,14.7s-10,4-15-.9c-25.5-25.5-51.1-51-76.5-76.7-3-3-4.5-2.7-7.3.2-24.9,25.1-49.9,50-74.9,75a33.1,33.1,0,0,1-4.5,3.9,9.8,9.8,0,0,1-12.2-1.6,9.6,9.6,0,0,1-1.1-11.8,28.6,28.6,0,0,1,3.6-4.2Q182,277.7,219.9,240c2.7-2.7,2.7-4,0-6.7-25.4-25.1-50.5-50.3-75.7-75.6a23.5,23.5,0,0,1-3.6-4.1,9.7,9.7,0,0,1,13.7-13.1,27.9,27.9,0,0,1,4.4,4c25,25,50.1,49.9,75,75,2.6,2.7,3.9,2.7,6.6,0,25.2-25.4,50.6-50.7,75.9-76,2-1.9,3.9-3.8,6.8-4.4C329.2,137.7,334.8,142.1,334.8,148.9Z" transform="translate(18.9 19.8)"/></svg>