<svg xmlns="http://www.w3.org/2000/svg" width="40.4mm" height="40.4mm" viewBox="0 0 114.6 114.6"><path d="M96.2,6.9a8.3,8.3,0,0,0-5.7,2.3L82,17.7a4,4,0,0,0-5.7,0L65.1,29a3.9,3.9,0,0,0-1.2,2.8,3.6,3.6,0,0,0,1.2,2.8h.1L11,88.8a5.8,5.8,0,0,0-1.7,3.8L7.9,109.4l-1.4,9.8a1.9,1.9,0,0,0,.6,1.7,2,2,0,0,0,1.4.6h.3l9.8-1.4,16.9-1.2a6,6,0,0,0,3.8-1.7L93.5,63a3.9,3.9,0,0,0,2.7,1.1A3.6,3.6,0,0,0,99,62.9l11.3-11.3a4,4,0,0,0,0-5.7l8.5-8.5a7.9,7.9,0,0,0,2.3-5.7,8.3,8.3,0,0,0-2.3-5.7l-17-17A8.4,8.4,0,0,0,96.2,6.9Zm0,4A4.1,4.1,0,0,1,99,12l17,17a3.9,3.9,0,0,1,1.2,2.8,3.6,3.6,0,0,1-1.2,2.8l-8.5,8.5L84.9,20.5,93.4,12A3.7,3.7,0,0,1,96.2,10.9Zm-17,9.6,1.4,1.4,25.5,25.5,1.4,1.4-2.8,2.8a1.9,1.9,0,0,0-2.8,0L99,54.4a1.9,1.9,0,0,0,0,2.8L96.2,60,67.9,31.8,70.7,29a1.9,1.9,0,0,0,2.8,0l2.8-2.8a1.9,1.9,0,0,0,0-2.8Zm2.9,9.3a2,2,0,0,0-1.4.6l-2.8,2.8a1.9,1.9,0,0,0,0,2.8,1.9,1.9,0,0,0,2.8,0l2.8-2.8a1.9,1.9,0,0,0,0-2.8A2,2,0,0,0,82.1,29.8Zm7,7.1a2,2,0,0,0-1.4.6l-2.8,2.8a1.9,1.9,0,0,0,0,2.8,1.9,1.9,0,0,0,2.8,0l2.8-2.8a1.9,1.9,0,0,0,0-2.8A2,2,0,0,0,89.1,36.9ZM68,37.6,90.6,60.2,38,112.7l-1.9-9.5L69.3,70a2,2,0,1,0-2.8-2.8L33.3,100.4l-4.7-.9-.9-4.7L55.2,67.3a2,2,0,0,0-2.8-2.8L24.8,91.9,15.5,90Zm28.2,6.3a2,2,0,0,0-1.4.6L92,47.4a1.9,1.9,0,0,0,0,2.8,1.9,1.9,0,0,0,2.8,0l2.8-2.8a1.9,1.9,0,0,0,0-2.8A1.7,1.7,0,0,0,96.2,43.9ZM65.1,52.4a2,2,0,0,0-1.4.6L58,58.7a1.9,1.9,0,0,0,0,2.8,1.9,1.9,0,0,0,2.8,0l5.7-5.7a1.9,1.9,0,0,0,0-2.8A2,2,0,0,0,65.1,52.4ZM13.2,93.6l10.6,2.1,1.1,5.8a2.2,2.2,0,0,0,1.6,1.6l5.8,1.2L34.4,115l-15.2,1L12,108.8Z" transform="translate(-6.5 -6.9)" fill="#29cc97"/></svg>