<?xml version="1.0" encoding="utf-8"?>
<!-- Generator: Adobe Illustrator 25.1.0, SVG Export Plug-In . SVG Version: 6.00 Build 0)  -->
<svg version="1.1" id="Layer_1" xmlns="http://www.w3.org/2000/svg" xmlns:xlink="http://www.w3.org/1999/xlink" x="0px" y="0px"
	 width="132.7px" height="129.3px" viewBox="0 0 132.7 129.3" style="enable-background:new 0 0 132.7 129.3;" xml:space="preserve"
	>
<style type="text/css">
	.st0{fill:#FEFEFE;stroke:#000000;stroke-width:3;stroke-miterlimit:10;}
	.st1{fill:#040404;}
	.st2{fill:#060606;}
	.st3{fill:#010101;}
	.st4{fill:#020202;}
	.st5{fill:#101010;}
</style>
<circle class="st0" cx="66.3" cy="64.7" r="60.3"/>
<g>
	<path class="st1" d="M82.2,76.7c-1.1,0.1-2.1-0.7-3.3-0.5c-0.3,0.1-1-0.5-0.5-0.9c0.7-0.5-0.1-1.4,0.7-1.7c0.7,0.1,0.9,0.7,1.3,1.1
		C80.8,75.6,81.6,76,82.2,76.7z"/>
	<path class="st2" d="M74,80.8c0,0.3,0,0.5,0,0.8c-0.4-0.4-0.9-0.6-1.2-1.1c-0.5-0.7-1.1-0.7-1.8-0.4C72.4,78.9,72.7,79,74,80.8
		L74,80.8z"/>
	<path class="st3" d="M92.2,33.2c-0.6,0-1.2,0-1.6-0.6c-2.8-3.1-6.3-4.6-10.5-4.8c-2.4-0.2-4.8-0.4-7.1-0.4c-9-0.1-18,0-26.9,0
		c-1.8,0-3.6,0.4-5.4,0.5c-5,0.5-8.9,2.8-11.7,7c-0.7,0.4-1,1-1.3,1.7c-0.7,1.9-1.2,3.8-1.2,5.8c0,4.2,0,8.4,0,12.6
		c0,1.8,0.1,3.6,0,5.4c0,11,0,22,0,33c0,0.8-0.1,1.7,0.5,2.4c0,0.1,0,0.2,0,0.3c-0.1,0.2-0.2,0.5,0.1,0.6c17.1,0,34.3,0,51.4,0
		c0.1,0,0.1-0.1,0.2-0.2c-0.9-0.9-1.9-1.8-2.6-2.8c-0.7-1.1-1.6-1.3-2.8-1.3c-13.4,0-26.8,0-40.2,0.1c-1.4,0-1.9-0.2-1.9-1.8
		c0.1-16,0-31.9,0-47.9c0-6.5,4.2-10.6,10.7-10.6c12.4,0,24.8,0.1,37.2-0.1c6.2-0.1,11,4.5,10.9,10.9c-0.2,10.2-0.1,20.4,0,30.6
		c0,0.6-0.3,1.3,0.4,1.7c2.2,1,3.7,2.8,5.5,4.5c0.2-0.3,0.3-0.5,0.4-0.7c3-9.2,6.1-18.4,9.1-27.6C108.1,42.5,101.7,33.6,92.2,33.2z
		 M101.7,49.1c-2,7.4-4.7,14.7-7.5,22c0-0.4,0-0.9,0-1.3c0-7.9,0-15.7,0-23.6c0-2.9,0.3-5.9-0.8-8.8
		C99.1,38.2,103.2,43.6,101.7,49.1z M103.6,41.4c0.3,0.5,0.5,0.9,0.8,1.5C103.5,42.6,103.5,42.2,103.6,41.4z"/>
	<path class="st3" d="M106.1,97.3c-0.2-0.9-0.5-1.6-1.2-2.2c-4.6-4.6-9.3-9.3-13.9-13.9c-1.2-1.2-2.6-2.4-4.3-2.4
		c-2,0-3.3-0.8-4.6-2.2c-0.9-0.4-1.7-0.8-2.6-0.9c-0.5,0-0.7-0.2-0.5-0.7c0.2-0.4,0.1-0.9,0.2-1.3c0-0.2-0.1-0.3-0.1-0.4
		c-0.9-0.7,0.1-1.2,0.3-1.7c7.7-14.4-2.7-31.8-19-31.8c-5,0-9.5,1.7-13.5,4.7c-0.5,0.3-1,0.6-1.3,1.1c-0.6,0.1-1,0.4-1,1
		c-0.3,0.4-0.5,0.7-0.8,1.1c-6.5,7.8-6.6,19.2-0.2,27.2c6.7,8.3,19.1,10.6,27.4,5.2c0.7-0.6,1.4-0.7,2.1,0.1
		c0.2,0.3,0.4,0.7,0.8,0.7c0.2-0.1,0.4-0.2,0.4-0.4c0-0.1,0-0.1,0-0.1c-0.2,0,0.3-0.2,0.1,0c0,0.4-0.4,0.4-0.6,0.6
		c-0.1,0.2,0,0.4,0.1,0.6c0.7,0.7,1.3,1.5,2.1,2.2c1.1,1,1.7,2,1.7,3.6c0,1.6,0.8,3,1.9,4.2c4.7,4.7,9.3,9.4,14.1,14
		c2.1,2,4.7,2.5,7.4,1.6c2.8-0.9,4.5-2.9,5.2-5.8C106.6,99.9,106.1,98.6,106.1,97.3z M71.6,75c-6,5.1-14.7,5.4-21.1,1
		c-0.2-0.2-0.4-0.4-0.6-0.5c-0.2-0.7-0.9-0.7-1.3-1.1c-0.3-0.1-0.5-0.3-0.7-0.7c-0.1-0.4-0.3-0.6-0.7-0.7
		c-4.8-5.8-5.8-12.3-2.6-19.1c3.1-6.7,8.7-10.2,16.2-10c7.3,0.1,12.7,3.7,15.7,10.3C79.7,61.6,78.3,69.4,71.6,75z"/>
	<path class="st2" d="M74,80.8c0.1-0.2,0.1-0.3,0.2-0.5c0-0.4-0.3-0.8,0.3-1c0.3-0.1,0.5,0.2,0.4,0.3C74.5,79.9,75.3,81.1,74,80.8
		C74,80.8,74,80.8,74,80.8z"/>
	<path class="st2" d="M77.3,83.5c-0.4-0.4-0.6-0.9-0.3-1.4c0-0.1,0.3-0.1,0.4-0.1C77.9,82.5,77.1,83,77.3,83.5z"/>
	<path class="st4" d="M53.3,68.5c-0.7,0.8-1.4,1.5-2.1,2.3c-5-4.8-5.2-13-0.6-18.1c0.1-0.1,0.2-0.4,0.3-0.4c1.4,0.3,1.9,1.6,2.9,2.4
		c0.6,0.5,0.1,0.8-0.2,1.2c-0.8,1.1-1.7,2.2-1.7,3.7c-0.1,1.3-0.2,2.5,0,3.8c-0.1,1.4,0.9,2.3,1.4,3.5
		C53.6,67.4,53.6,67.9,53.3,68.5z"/>
	<path class="st5" d="M53.3,68.5c0-0.5,0-1,0-1.6C54.1,67.4,54.3,68,53.3,68.5z"/>
</g>
</svg>
