<?xml version="1.0" encoding="utf-8"?>
<!-- Generator: Adobe Illustrator 25.1.0, SVG Export Plug-In . SVG Version: 6.00 Build 0)  -->
<svg version="1.1" id="Layer_1" xmlns="http://www.w3.org/2000/svg" xmlns:xlink="http://www.w3.org/1999/xlink" x="0px" y="0px"
	 width="132.7px" height="129.3px" viewBox="0 0 132.7 129.3" style="enable-background:new 0 0 132.7 129.3;" xml:space="preserve"
	>
<style type="text/css">
	.st0{fill:#FEFEFE;stroke:#000000;stroke-width:5;stroke-miterlimit:10;}
</style>
<circle class="st0" cx="66.3" cy="64.7" r="60.3"/>
<g>
	<path d="M34,33.1c-2.4,0-4.4,2-4.4,4.4v38.4c2.2-11.4,4.5-24.3,4.7-24.9c0.7-3.8,3.6-6.1,7.7-6.1h56.7v-1.5c0-2.4-2-4.4-4.4-4.4
		H56.2c-0.4-0.2-1.3-1.5-1.7-2.2c-1.1-1.8-2.3-3.7-4.3-3.7C50.2,33.1,34,33.1,34,33.1z M42,47.8c-1.9,0-4.3,0.6-4.8,3.7
		c-0.2,1-5.9,31.4-7.6,40.3v0.1c0,2.4,2,4.4,4.4,4.4h57.3c2.4,0,4.4-1.9,4.4-4.3l7.3-39.5l0.1-0.3c0-2.4-2-4.4-4.4-4.4
		C98.8,47.8,42,47.8,42,47.8z"/>
</g>
</svg>
