<?xml version="1.0" encoding="utf-8"?>
<!-- Generator: Adobe Illustrator 25.2.0, SVG Export Plug-In . SVG Version: 6.00 Build 0)  -->
<svg version="1.1" id="Layer_1" xmlns="http://www.w3.org/2000/svg" xmlns:xlink="http://www.w3.org/1999/xlink" x="0px" y="0px"
	 width="132.7px" height="129.3px" viewBox="0 0 132.7 129.3" style="enable-background:new 0 0 132.7 129.3;" xml:space="preserve"
	>
<g>
	<path d="M90.5,66.4c-6,1.3-7.5,4.3-7.4,9.4c0.3,11.3,0.1,22.7,0.1,34c0,2.1-0.1,4.3-0.7,6.3c-0.8,2.6-2.7,4.6-5.7,4.2
		c-2.9-0.4-3.3-2.8-3.3-5.4c0-16.3,0.1-32.5,0-48.8c0-3.8,1.5-6.6,4.7-8.5c8.7-5.1,17.3-10.3,26.1-15.1c8.6-4.7,12.2-2.5,12.3,7.3
		c0.1,13.7,0,27.4,0,41.1c0,1.1,0,2.1-0.1,3.2c-0.4,3.3-1.4,6.9-5.4,6.8c-4.6-0.1-4-4.2-4-7.3c0-12.2,0-24.4,0-36.9
		c-5.2,1-7.2,3.4-7,8.7c0.4,11.7,0.1,23.5,0.1,35.3c0,1.5,0.2,3-0.1,4.5c-0.6,3.3-2.6,5.5-6.1,5.2c-3.4-0.2-3.7-3-3.6-5.7
		c0-10.7,0-21.4,0-32.1C90.5,70.7,90.5,68.8,90.5,66.4z"/>
	<path d="M85.5,45c-23.9,14-17.8,14.6-41,0.3c6.4-3.7,12.5-7.2,18.6-10.8c1.7-1,3.1-0.6,4.7,0.3C73.5,38.1,79.2,41.3,85.5,45z"/>
	<path d="M70.2,30.5c6.3-3.6,11.8-6.7,17.2-10c1.9-1.2,3.5-0.9,5.2,0.2c3.8,2.3,7.7,4.5,11.6,6.8c4,2.3,4.1,4.6,0.2,7
		c-0.4,0.2-0.8,0.4-1.1,0.7C90.9,47.2,81.3,36.9,70.2,30.5z"/>
	<path d="M60.4,30.6c-4.3,2.5-7.9,4-10.7,6.5c-7.8,6.7-14.7,4.6-22-0.9c-3.6-2.7-3.3-4.7,0-6.7c4.1-2.6,8.5-4.9,12.7-7.4
		c1.8-1.1,3.4-1.1,5.3,0C50.2,24.8,54.8,27.3,60.4,30.6z"/>
	<path d="M84,17c-1.7,1-3.3,2-4.9,3c-15.2,8.8-15.2,8.8-30.3-1.9C63.5,5.7,72.7,5.4,84,17z"/>
	<path d="M66.1,74.2c0-4.4-1.5-8.1-5.3-10.3c-14.7-8.6-29.4-17-45.1-26c0,19,0,36.7,0,54.4c0,2.6,0.6,4.3,3,5.7
		c12.5,7,24.7,14.3,37.2,21.3c5.9,3.3,10.1,0.7,10.1-6C66.2,100.3,66.1,87.2,66.1,74.2z M55.6,97.5c-0.2,5.3-2.9,7-7.4,4.6
		c-6.2-3.3-12.3-6.9-18.5-10.3c-2.1-1.1-3.1-2.5-3.1-5.1c0.1-9.4,0-18.8,0-29.5c7.9,4.6,14.8,8.4,21.4,12.6c4.8,3,7.3,7.7,7.5,13.5
		C55.7,88,55.7,92.8,55.6,97.5z"/>
</g>
</svg>
