<?xml version="1.0" encoding="utf-8"?>
<!-- Generator: Adobe Illustrator 25.1.0, SVG Export Plug-In . SVG Version: 6.00 Build 0)  -->
<svg version="1.1" id="Layer_1" xmlns="http://www.w3.org/2000/svg" xmlns:xlink="http://www.w3.org/1999/xlink" x="0px" y="0px"
	 width="128px" height="128px" viewBox="0 0 128 128" style="enable-background:new 0 0 128 128;" xml:space="preserve">
<style type="text/css">
	.st0{fill:#B3B3B3;}
</style>
<path class="st0" d="M96.2,6.9c-2.1,0-4.1,0.8-5.7,2.3l-8.5,8.5c-1.6-1.6-4.1-1.6-5.7,0L65.1,29c-0.8,0.8-1.2,1.8-1.2,2.8
	c0,1.1,0.4,2.1,1.2,2.8l0.1,0.1L11,88.8c-1,1-1.6,2.3-1.7,3.8l-1.4,16.8l-1.4,9.8c-0.1,0.6,0.1,1.2,0.6,1.7c0.4,0.4,0.9,0.6,1.4,0.6
	c0.1,0,0.2,0,0.3,0l9.8-1.4l16.9-1.2c1.4-0.1,2.8-0.7,3.8-1.7L93.5,63c0.7,0.7,1.7,1.1,2.7,1.1c1.1,0,2.1-0.4,2.8-1.2l11.3-11.3
	c1.6-1.6,1.6-4.1,0-5.7l8.5-8.5c1.5-1.5,2.3-3.5,2.3-5.7c0-2.1-0.8-4.1-2.3-5.7l-17-17C100.4,7.7,98.3,6.9,96.2,6.9z M96.2,10.9
	c1,0,2.1,0.4,2.8,1.1l17,17c0.8,0.8,1.2,1.8,1.2,2.8c0,1.1-0.4,2.1-1.2,2.8l-8.5,8.5L84.9,20.5l8.5-8.5
	C94.1,11.2,95.2,10.9,96.2,10.9z M79.2,20.5l1.4,1.4l25.5,25.5l1.4,1.4l-2.8,2.8c-0.8-0.8-2-0.8-2.8,0L99,54.4c-0.8,0.8-0.8,2,0,2.8
	l-2.8,2.8L67.9,31.8l2.8-2.8c0.4,0.4,0.9,0.6,1.4,0.6s1-0.2,1.4-0.6l2.8-2.8c0.8-0.8,0.8-2,0-2.8L79.2,20.5z M82.1,29.8
	c-0.5,0-1,0.2-1.4,0.6l-2.8,2.8c-0.8,0.8-0.8,2,0,2.8c0.4,0.4,0.9,0.6,1.4,0.6c0.5,0,1-0.2,1.4-0.6l2.8-2.8c0.8-0.8,0.8-2,0-2.8
	C83.1,30,82.6,29.8,82.1,29.8z M89.1,36.9c-0.5,0-1,0.2-1.4,0.6l-2.8,2.8c-0.8,0.8-0.8,2,0,2.8c0.4,0.4,0.9,0.6,1.4,0.6
	c0.5,0,1-0.2,1.4-0.6l2.8-2.8c0.8-0.8,0.8-2,0-2.8C90.1,37.1,89.6,36.9,89.1,36.9z M68,37.6l22.6,22.6l-52.6,52.5l-1.9-9.5L69.3,70
	c0.8-0.8,0.8-2,0-2.8s-2-0.8-2.8,0l-33.2,33.2l-4.7-0.9l-0.9-4.7l27.5-27.5c0.8-0.8,0.8-2,0-2.8c-0.8-0.8-2-0.8-2.8,0L24.8,91.9
	L15.5,90L68,37.6z M96.2,43.9c-0.5,0-1,0.2-1.4,0.6L92,47.4c-0.8,0.8-0.8,2,0,2.8c0.4,0.4,0.9,0.6,1.4,0.6s1-0.2,1.4-0.6l2.8-2.8
	c0.8-0.8,0.8-2,0-2.8C97.2,44.1,96.7,43.9,96.2,43.9z M65.1,52.4c-0.5,0-1,0.2-1.4,0.6L58,58.7c-0.8,0.8-0.8,2,0,2.8
	c0.4,0.4,0.9,0.6,1.4,0.6c0.5,0,1-0.2,1.4-0.6l5.7-5.7c0.8-0.8,0.8-2,0-2.8C66.1,52.6,65.6,52.4,65.1,52.4z M13.2,93.6l10.6,2.1
	l1.1,5.8c0.2,0.8,0.8,1.4,1.6,1.6l5.8,1.2l2.1,10.7L19.2,116l-7.2-7.2L13.2,93.6z"/>
</svg>
