<?xml version="1.0" encoding="utf-8"?>
<!-- Generator: Adobe Illustrator 25.1.0, SVG Export Plug-In . SVG Version: 6.00 Build 0)  -->
<svg version="1.1" id="Layer_1" xmlns="http://www.w3.org/2000/svg" xmlns:xlink="http://www.w3.org/1999/xlink" x="0px" y="0px"
	 width="473.1px" height="473.1px" viewBox="0 0 473.1 473.1" style="enable-background:new 0 0 473.1 473.1;" xml:space="preserve"
	>
<style type="text/css">
	.st0{fill:#E72900;}
</style>
<path class="st0" d="M150.6,427.4c-21.4-1.8-41.5-19.8-47.1-41.9c-1.2-4.9-1.7-9.8-1.7-14.8c0-57.1,0-114.2,0-171.3
	c0-7.6,3.4-11.4,9.9-11.2c5.3,0.2,8.9,3.7,9.1,9c0.1,4.2,0,8.5,0,12.7c0,53.1,0,106.2,0,159.3c0,18,9.3,31.9,25,37.5
	c4.3,1.5,8.7,2.2,13.2,2.2c51.3,0,102.7,0,154,0c21.8,0,38.1-16.3,38.1-38.1c0-56.3,0-112.7,0-169c0-1.6,0-3.3,0.2-4.9
	c0.7-5.9,4.4-9,10.1-8.7c5.4,0.3,8.8,3.9,8.9,9.6c0.1,12.1,0,24.2,0,36.3c0,45.3,0,90.7,0,136c0,27.6-18,50.2-44.9,56.6
	c-1.2,0.3-2.5,0.4-3.7,0.6c-1.2,0.7-2.7-0.3-3.9,0.6c-54.5,0-109,0-163.4,0C153.3,427.1,151.9,428.1,150.6,427.4z"/>
<path class="st0" d="M240.7,44.2c-3.2,1.2-6.5,1.3-9.7,0C234.3,44.2,237.5,44.2,240.7,44.2z"/>
<path class="st0" d="M150.6,427.4c1.4-0.2,2.7-0.5,3.9,0.6c-1.2,0-2.5,0-3.7,0C150.7,427.8,150.6,427.6,150.6,427.4z"/>
<path class="st0" d="M318,428c1.2-1,2.5-0.9,3.9-0.6c-0.1,0.2-0.1,0.4-0.1,0.6C320.5,428,319.2,428,318,428z"/>
<path class="st0" d="M178.5,291.2c0,26.2,0,52.5,0,78.7c0,7.1-4.8,11.7-11.1,11c-4.1-0.5-6.9-3-7.6-7c-0.3-1.7-0.4-3.5-0.4-5.2
	c0-51.6,0-103.2,0-154.7c0-6.9,1.7-10.1,6.1-11.6c7.1-2.5,13.1,1.7,13.2,9.5c0.1,14.2,0,28.5,0,42.7
	C178.5,266.8,178.5,279,178.5,291.2z"/>
<path class="st0" d="M226.5,291.2c0-26.4,0-52.7,0-79.1c0-8,6-12.3,13.2-9.8c2.9,1,4.9,3,5.5,6.1c0.3,1.7,0.5,3.5,0.5,5.2
	c0,51.8,0,103.7,0,155.5c0,4.1-1,7.6-4.5,10.1c-5.7,4.1-13.5,1-14.6-6c-0.2-1.5-0.1-3-0.1-4.5C226.5,342.9,226.5,317.1,226.5,291.2z
	"/>
<path class="st0" d="M293.8,291.2c0-26.1,0-52.2,0-78.3c0-6.1,1.7-9.1,5.8-10.6c7.1-2.5,13.1,1.7,13.1,9.4c0,32,0,63.9,0,95.9
	c0,21,0,42,0,62.9c0,6.8-5.3,11.3-11.7,10.2c-3.8-0.7-6.5-3.4-7-7.2c-0.2-1.7-0.2-3.5-0.2-5.2C293.8,342.6,293.8,316.9,293.8,291.2z
	"/>
<path class="st0" d="M366.6,91.5c-23.9-0.2-47.7-0.2-71.6-0.1c-2.4,0-3.4-0.6-4-3c-6-22.9-20.4-37.3-43.6-42.9
	c-1.7-0.4-3.7,0.3-5.1-1.3c-0.5,0-1,0-1.5,0c-3.2,0.6-6.5,0.6-9.7,0c-0.5,0-1,0-1.5,0c-0.1,0.6-0.6,0.7-1.1,0.7
	C205,48.4,187,64.7,181.4,87.7c-0.7,2.7-1.6,3.7-4.6,3.7c-23.5-0.1-47-0.2-70.4,0.1c-21.6,0.3-38.1,17.7-38,39.5
	c0.1,21.3,16.6,38,38.5,38c86.6,0.1,173.1,0.1,259.7,0c21.6,0,38.5-17.4,38.5-39.1C405,109,387.9,91.7,366.6,91.5z M200.4,89.1
	c5.2-14.6,18.9-25.9,36.3-25.6c16.8,0.3,31.1,11.6,34.6,27.2c0,0.1-0.1,0.2-0.1,0.6c-11.3,0-22.6,0-33.9,0c-11.5,0-23,0-34.4,0
	C201.4,91.3,199.5,91.9,200.4,89.1z M368.2,149.5c-2.1,0.3-4.2,0.4-6.3,0.4c-41.8,0-83.7,0-125.5,0c-42.2,0-84.4,0-126.6,0
	c-10.3,0-18-4.9-21-13.2c-4.6-13,4.4-26.2,18.4-27.1c0.9-0.1,1.7,0,2.6,0c84.7,0,169.4,0,254,0c10.1,0,17.8,5,20.9,13.4
	C388.7,134.4,380.7,147.4,368.2,149.5z"/>
</svg>
