<svg xmlns="http://www.w3.org/2000/svg" width="118.8mm" height="135.4mm" viewBox="0 0 336.7 383.9"><path d="M150.6,427.4c-21.3-1.8-41.5-19.8-47-41.9a57.1,57.1,0,0,1-1.8-14.8V199.4c0-7.6,3.5-11.4,9.9-11.2s8.9,3.7,9.1,9,0,8.5,0,12.8q0,79.7.1,159.2c0,18,9.2,31.9,24.9,37.6a39.8,39.8,0,0,0,13.3,2.1h154c21.8,0,38.1-16.3,38.1-38.1v-169a40.2,40.2,0,0,1,.2-4.9c.8-5.9,4.4-9,10.1-8.7s8.9,3.9,8.9,9.6c.1,12.1,0,24.3.1,36.4q0,67.9-.1,136c0,27.6-18,50.2-44.9,56.6-1.2.3-2.4.4-3.7.6s-2.7-.3-3.8.6H154.5C153.3,427.1,151.9,428.1,150.6,427.4Z" transform="translate(-68.2 -44.2)" fill="#e72900"/><path d="M240.7,44.2a13.5,13.5,0,0,1-9.7,0Z" transform="translate(-68.2 -44.2)" fill="#424242"/><path d="M150.6,427.4c1.4-.2,2.8-.5,3.9.6h-3.7A1.4,1.4,0,0,1,150.6,427.4Z" transform="translate(-68.2 -44.2)" fill="#515151"/><path d="M318,428c1.1-1,2.5-.8,3.8-.6s-.1.4-.1.6Z" transform="translate(-68.2 -44.2)" fill="#616161"/><path d="M178.5,291.2v78.7c0,7.1-4.8,11.7-11.1,11a8.4,8.4,0,0,1-7.7-7,30.4,30.4,0,0,1-.4-5.2V213.9c0-6.9,1.6-10,6-11.6,7.1-2.5,13.1,1.8,13.2,9.5.1,14.2,0,28.5,0,42.7Z" transform="translate(-68.2 -44.2)" fill="#e72900"/><path d="M226.5,291.2V212.1c0-8,6-12.3,13.3-9.8a7.7,7.7,0,0,1,5.4,6.1,22.9,22.9,0,0,1,.5,5.2q.2,77.7.1,155.5c0,4.1-1,7.7-4.5,10.2a9.2,9.2,0,0,1-14.6-6,22.6,22.6,0,0,1-.2-4.5Z" transform="translate(-68.2 -44.2)" fill="#e72900"/><path d="M293.8,291.2c0-26.1-.1-52.2,0-78.3,0-6.1,1.7-9.1,5.8-10.6,7.1-2.5,13.1,1.8,13.2,9.5V370.6c-.1,6.8-5.4,11.3-11.8,10.2a8.3,8.3,0,0,1-7-7.2,45.2,45.2,0,0,1-.2-5.2Z" transform="translate(-68.2 -44.2)" fill="#e72900"/><path d="M366.6,91.5c-23.9-.3-47.7-.2-71.6-.2-2.4,0-3.4-.5-4-3-6-22.8-20.4-37.3-43.6-42.9-1.7-.4-3.7.3-5.2-1.2h-1.5a26.4,26.4,0,0,1-9.7,0h-1.5c-.1.6-.6.6-1.1.7-23.4,3.5-41.4,19.8-47,42.8-.7,2.7-1.7,3.7-4.7,3.7-23.5-.2-46.9-.2-70.4.1-21.6.3-38.1,17.7-38.1,39.5s16.6,37.9,38.5,37.9q129.9.3,259.7,0c21.6,0,38.5-17.4,38.5-39S387.9,91.7,366.6,91.5ZM200.4,89.1c5.2-14.5,19-25.9,36.3-25.5s31.1,11.6,34.6,27.1l-.2.6H202.8C201.4,91.3,199.5,91.9,200.4,89.1Zm167.8,60.4a45.8,45.8,0,0,1-6.4.4H109.6c-10.2,0-18-5-20.9-13.3-4.7-12.9,4.3-26.2,18.4-27.1H363.7c10.1,0,17.9,5,20.9,13.4C388.7,134.4,380.7,147.4,368.2,149.5Z" transform="translate(-68.2 -44.2)" fill="#e72900"/></svg>